<svg width="24" height="24" viewBox="0 0 24 24" fill="none" xmlns="http://www.w3.org/2000/svg">
<path d="M5 7.8H6.33333M6.33333 7.8H19M6.33333 7.8V17.6C6.33333 17.9713 6.47381 18.3274 6.72386 18.5899C6.97391 18.8525 7.31304 19 7.66667 19H16.3333C16.687 19 17.0261 18.8525 17.2761 18.5899C17.5262 18.3274 17.6667 17.9713 17.6667 17.6V7.8H6.33333ZM8.33333 7.8V6.4C8.33333 6.0287 8.47381 5.6726 8.72386 5.41005C8.97391 5.1475 9.31304 5 9.66667 5H14.3333C14.687 5 15.0261 5.1475 15.2761 5.41005C15.5262 5.6726 15.6667 6.0287 15.6667 6.4V7.8M13.3333 11.3V15.5M10.6667 11.3V13.4V15.5" stroke="black" stroke-width="2" stroke-linecap="round" stroke-linejoin="round"/>
</svg>
